<?xml version="1.0" encoding="UTF-8"?>
<svg id="Layer_2" data-name="Layer 2" xmlns="http://www.w3.org/2000/svg"
    viewBox="0 0 304.15 311.54">
    <path fill="#66b7ac"
        d="M300.65,162.32c-3.25-7.15-9.28-16.1-17.36-19.53,6.05-.13,11.57,2.67,15.4,6.59,1.93-13-13.26-24.87-24.35-31.98l19.04,4.39c-4.83-8.52-12.46-16.87-22.39-20.99,2.49-.34,7.59,1.3,9.8,2.2,2.19.89,4.74,2.21,6.72,3.42,1.31.8,2.76,3.64,3.64,2.2-3.97-5.8-8.68-10.51-14.56-14.89-1.1-.82-2.23-1.66-3.36-2.44-4.46-3.1-10.67-5.66-15.12-9.03.46-.83,14.78.5,16.8.73,4.58.54,9.87,2.77,14.56,2.2-3.66-4.25-7.47-8.66-12.32-11.96-1.62-1.1-3.73-2.14-5.6-2.93-1.11-.47-2.64-1.73-3.92-1.95l-20.72-6.59,18.76-2.2c1.25-.98-4-3.63-4.2-3.91-7.39-3.28-15.28-3.63-23.2-3.93,2.92-.24,5.61-.46,8.01-.66,9.05.28,20.05.32,19.98-1.18-.07-1.24-12.46-3.96-25.09-6.41-.52-.17-1.05-.33-1.59-.5l6.22-1.48c1.74-.36,3.38-.9,5.04-1.46,1.3-.45,2.73-1.04,4.2-.98,2.18-1.74-15.28-5.22-16.8-5.37-5.92-.58-13.19-.17-19.04.98,1.1-.88,1.53-2.77,1.96-3.42l-15.68-.24,18.2-5.13c.84-1.24-.32-.85-1.12-.98-11.18-1.79-22.77-.88-33.03,3.42l13.44-9.28-23.79,6.35c3.05-3.74,5.24-7.79,8.96-11.23,1.22-1.13,4.28-1.91,4.76-3.91-10.67.34-20.37,4.6-28.55,10.25-1.13-2.96,9.82-16.51,9.24-17.33-8.49,1.06-15.33,6.79-21,11.96-1.02-.42,7.16-15.22,3.36-15.13-2.84.07-12.69,17.45-13.72,18.06l-1.4-9.76c-2.91,2.16-5.75,7.01-5.32,10.25-.12,1.84-.82.83-1.68.24-6.4-4.36-13.29-7.96-21.55-8.54,4.47,4.96,10.32,8.61,13.16,14.65l-12.88-3.91-11.2-1.71c4.39,2.28,10.88,4.76,13.16,9.03-8.53-3.78-19.09-4.76-28.55-3.91-.41.04-5.35.38-4.48,1.46l16.52,5.13-14.56.24c.5.82.82,2.44,1.96,3.42-9.02-1.74-26.35-1.48-34.43,2.93-.32.18-1.68.63-1.68.73l.84.73,23.52,5.24c-13.31-1.52-28.76-2.91-30.81-1.44-2.65,1.89,6.91,5.01,18.57,9.25-2.61.11-5.25.2-7.63.63-4.88.87-11.44,3.07-14.56,6.59l19.04,2.44c-4.75,1.45-9.86,2.05-14.56,3.66-4.72,1.62-11.67,5.07-15.68,7.81-4.85,3.32-8.72,7.64-12.32,11.96,4.91.45,10.26-1.65,15.12-2.2,4.76-.54,10.87-.89,15.68-.98.49,0,1.05-.8,1.96-.49.56.26-5.65,3.45-6.44,3.91-3.32,1.9-7.59,3.74-10.64,5.86-6.31,4.39-13.34,10.94-16.8,17.33,5.56-3.68,11.8-7.42,19.04-7.81-9.37,4.81-16.72,12.15-21.83,20.5l20.16-3.91c-12.58,5.99-26.38,18.78-25.47,31.98,3.8-3.61,8.85-6.75,14.84-6.59-12.07,6.7-16.58,19.15-21.27,30.27.16,1.31.65.75,1.4.24,4.12-2.77,7.8-9.13,14.84-9.03-7.84,6.44-14.64,15.31-12.6,25.14,2.15-3.35,3.92-8.25,8.68-9.52-5.63,6.74-7.28,16.36-7.56,24.65l10.36-14.89c-3.34,6.1-6.29,13.27-7.28,20.02-.99,6.74-1.28,16.42.56,22.46v-9.28c2.03-5.64,3.46-12.05,8.96-16.11-4.97,11.55-11.04,29.46-1.68,40.03l4.48-20.99c-2.34,14.47-3.27,30.75,5.04,43.45-.93-1.41-.13-16.84.84-16.84,1.79,10.18,2.05,21.85,10.92,29.54-1.18-6.02-3.64-12.47-2.24-18.55,1.15,13.29,8.47,25.64,19.88,34.42l.56-22.94c2.52,10.15,6.03,23.09,19.04,26.36-1.57-1.12-5.44-11.87-4.48-12.2,1.14,1.5,2.5,2.91,3.64,4.39.33.43,1.9.95,2.24,1.95l13.44,7.32,26.59,6.35c-.49-1.96-5.17-2.25-7.28-3.42-2.42-1.33-4.91-3.86-7-5.61,5.35,1.78,17.78,7.56,23.23,7.08,2.64-.23-4.31-3.42-2.24-4.88,4.04,5.33,11.74,8.18,19.04,7.81l-2.24-4.88c8.14,8.36,18.3,8.76,26.31,0,1.77.68-1.3,3.96-1.96,4.64.14,2.55,17.67-3.08,18.2-6.59,2.24.69-2.19,2.95-2.52,3.66.59,1.06,21.68-4.38,23.23-7.08,2.89-.19-4.05,4.63-4.48,4.88-3.63,2.12-7.53,2.63-11.2,4.39,9.96-1.61,20.75-3.11,29.95-6.83,3.3-1.33,9.64-4.74,12.32-6.83.68-.53,2.17-1.84,2.8-2.44,1.2-1.14,2.54-3.57,3.64-4.88l-3.92,13.18c11.6-4.09,15.04-15.26,17.92-24.9l.56,21.48c10.28-7.89,17.47-18.66,19.32-30.51,1.45.2.66,4.13.56,4.88-.42,3.07-1.97,6.15-2.24,9.28,8.8-7.45,9.05-18.63,10.92-28.56l.28,15.87c.29.71,1.42-.1,1.68-.49,7.53-11.09,4.98-30.54,4.48-42.96l3.36,21.48c.81,1.4,3.74-3.98,3.92-4.39,4.12-9.47-.68-25.75-4.48-35.15,6.69,6.11,9.93,16.39,7.84,24.9.71.83,1.63-.76,1.68-.98,2.76-11.44-1.77-29.25-6.72-40.03,4.49,2.97,6.44,8.56,8.68,12.94,3.19.13-3.34-21.94-5.88-23.68,3.99,1.96,6.92,6.12,7.56,10.01,3-9.96-4.06-19.57-12.04-26.12.95-1.75,15.01,6.88,14.84,9.52,1.76.18-2.5-10.21-3.08-11.47Z" />
</svg>