<?xml version="1.0" encoding="UTF-8"?>
<svg id="Layer_3" data-name="Layer 3" xmlns="http://www.w3.org/2000/svg" viewBox="0 0 452.87 363.51">
    <path fill="#47a0a1" d="M214.04,14.51c3.18,3.39,5.65,2.59,7.77-.12,2.96-3.44,2.92-8.27,5.08-9.39,2.52.05,3.64,2.77,4.83,4.42,3.18,5.67,5.4,6.79,11.23,1.98,4.72-3.59,9.76-7.4,15.09-10.6,4.79-2.8.46,3.91-.26,5.81-.8,2.34-4.02,8.29.51,8.45,2.02-.09,5.36-1.94,8.58-3.63,4.5-2.38,13.12-6.88,16.87-7.71,2.32-.06-1.09,3.59-2.02,4.98-1.09,1.41-2.28,3.06-2.94,4.47-2.29,5.62,6.75,0,10.57-1.67,5.26-2.59,15.62-6.59,19.78-6.09,2.81,1.14-5.68,7.29-7.62,9.55-2.72,2.62-5.1,6.04.56,3.78,8.53-3.82,17.19-8.65,26.26-10.81,2.78-.68,6.98-1.7,8.76-.19,1.12,1.53-4.33,5.42-6.58,7.06-2.93,2.14-6.15,4.91-8.61,7.2-7.09,6.81,5.61-.35,8.19-1.41,3.11-1.4,6.18-2.57,9.42-3.48,6.83-1.91,14.75-3.45,21.25-3.27,1.29-.18,6.3.37,4.52,1.95-2.08,1.49-5.94,2.8-10.03,4.54-4.79,2.1-9.51,4.61-13.75,7.63-3.02,2.07-8.71,6.98-1.75,5.89,4.7-.69,10.55-2.54,15.18-2.11,2.51.41-.3,2.1-.69,3.23-.44.83-.06,1.94.05,3.24-.07,3.19,7.05,1.81,10.71,2.71,4.14.57,9.75,1.58,14.22,2.34,2.57.52,5.35.69,7.3,1.93.1.12.12.24.08.36-.27.96-5.41,2.23-10.52,3.9-5.55,1.79-11.05,3.9-16.22,6.48-1.47.72-10.09,5.01-4.41,4.5,11.77-1.91,23.99-3.02,35.15-.79,4.98.94,10.6,2.31,11.12,3.71.76,3.2-23.36,7.38-25.24,9.17,1.3.53,4.94.31,6.91.45,11.66.33,22.86,3.32,33.27,7.65,17.04,6.42-7.49,5.15-13.22,6.49-4.22.3-15.74,3.17-15.06,4.95,1.21,1.61,5.24,1.57,7.64,2.12,14.54,2.26,28.61,7.75,39.88,16.63,4.05,3.65-3.8,1.64-5.69,1.32-7.88-1.64-16.22-2.52-24.49-1.54-12.25,1.6-7.2,2.58.56,3.44,14.09,1.92,26.86,8.32,37.07,17.66,1.89,1.52,7.47,7.11,1.89,6.8-10.59-1.62-21.26-4.43-32.19-4.19-2.04-.02-4.84.06-6.68.51-1.09.29-1.47.71-1.12,1.25,1.03,1.48,4.4,2.55,6.32,3.63,10.36,4.89,19.46,11.91,27.7,19.98,1.8,1.64,7.43,7.02,2.11,6.23-6.24-1.08-12.81-3.6-19.17-4.51-6.17-1.06-10.99-1.06-9.64.54,13.45,8.15,28.95,17.8,37.44,31.98,1.58,2.15,5.22,8.85.63,7.11-9.7-5.1-19.23-10.88-29.83-13.72-2-.6-4.76-1.34-6.69-1.46-1.08-.06-1.61.15-1.54.63.44,1.7,4.05,3.77,5.7,5.27,12.92,10.04,24.97,22.37,33.07,37.69.64,1.35,1.05,2.5,1.16,3.3.16,1.15-.3,1.58-1.38,1.24-2.12-.75-4.34-2.59-6.34-3.98-7.43-5.57-15.53-10.18-24.09-13.44-10.9-4.07-5.96.34-1.13,4.63,14.64,13.34,24.99,31.79,30.23,52.25.42,1.7.68,3.11.67,4,0,.71-.17,1.09-.55,1.1-.37.01-.95-.34-1.74-1.05-.54-.48-1.18-1.12-1.91-1.88-7.11-7.84-20.4-20.94-28.27-27.39-1.31-1.08-2.01-1.56-2.11-1.41.22,1.35,3.55,5.19,4.48,7.06,8.83,14.38,14.53,32.5,15.49,50.1-.37,2.02-1.57.63-3.29-2.51-3.9-7.66-8.04-14.52-13.7-20.95-2.29-2.67-10.55-10.18-12.37-6.76-.13,2.61,1.8,5.24,3.09,7.99,7.16,13.28,10.14,28.91,10.31,44.24-.09,4.94.3,12.36-4.89,2.38-4.01-7.41-11.21-19.27-15.57-25.53-.77-1.11-2.78-4.04-3.33-4.03-.28,0-.21.67.08,1.86.2.82.5,1.89.85,3.1,3.97,13.4,6.06,28.21,3.89,41.88-2.43,16.11-5.16,1.6-7.61-6.33-1.98-7.07-5.32-13.7-9.04-20.48-1.28-2.13-3.2-6.26-4.93-7.58-.87.17-.18,3.01-.12,4.31,1.86,13.7-1.41,27.11-7.16,38.33-6.61,14.4-6-3.26-8.47-12.14-.61-2.23-2.5-14.82-3.99-13.7-.28.28-.55,1.04-.86,2.1-.2.69-.42,1.51-.67,2.39-2.81,10.91-11.52,27.39-21.8,29.79-2.14-.69,1.45-11.51,1.12-14.33.58-4.51-.56-25.46-5.06-12.19-2.97,7.65-8.06,14.08-13.96,19.25-3.4,2.57-6.5,6.21-8.52,4.86-1.27-2.5-.43-4.96-.49-7.5-.06-3.77,1.19-12.29,0-15.13-1.32.61-2.07,3.21-3.02,4.42-2.34,3.97-5.3,7.58-8.38,10.95-2.41,2.56-4.84,5.35-5.96,5.26-.39-.06-.57-.29-.72-.68-.5-1.77-.28-3.38-.28-5.21.99-25.09-.24-6.59-17,3.96-2.06,1.24-5.82,4.9-5.47-.65.09-2.67.56-7,.8-10.7.05-2.33,1.08-8.39-.92-6.78-3.57,3.97-6.79,8.47-10.92,12.01-.98.93-2.13,1.94-3.41,2.31-.29.05-.54,0-.75-.13-.68-.57-.77-1.34-.92-2.12-.38-2.59-.29-7.48-.5-10.32-.16-4.38-1.35-2.62-2.83-.27-1.9,2.83-4.44,8.12-6.54,10.55-1.97,2.41-2.55-5.24-3.2-6.33-.78-2.38-1.62-5.25-3.52-7.15-.44-.37-1.02-.67-1.54-.31-1.32.68-1.87,5.78-2.61,8.11-1.01,3.27-2.75,8.84-6.35,6.68-2.95-2.61-3.54-8.97-4.39-12.9-2.2-8.17-6.92,6.56-7.34,8.6-1.91,7.12-5.54.75-7.22-2.45-.72-1.01-3.48-9.06-4.98-4.48-1.32,3.69.04,9.9-1.25,12.23-2.36,2.38-11.69-9.94-13.06-11.41-1.84-2.43-2.87-3.06-3-.71-.14,3.76.59,11.28.71,15.04-.05,1.21.15,2.34-.61,3.35-.83.58-1.52.08-2.39-.36-.85-.55-1.8-1.16-2.64-1.84-5.58-4.04-10.19-9.47-14.98-14.52-1.03-1.01-1.58-.08-1.65.89-.4,2.65.55,10.59.47,14.2,0,3.94-2.24,2.15-4,.29-4.33-4.4-8.4-9.35-11.41-14.97-4.63-9.88-4.8-.69-4.57,5.57-.1,3.68,1.64,9.3.61,12.22-.32.61-.95.8-1.51.67-1.5-.41-3.24-1.53-4.51-2.6-6.67-5.26-12.24-12.14-15.49-20.48-.73-1.24-1.29-4.61-2.86-4.68-1.63,1.2-1.82,4.97-2.23,6.82-.92,5.91-.7,11.73.31,17.22.23,1.84.77,3.81.46,5.64-.61,2.36-2.66.86-3.83.16-8.55-6.36-14.28-16.64-17.72-27.74-.83-1.6-1.04-5.27-2.42-6.09-.15-.02-.3.08-.46.3-.83,1.39-1.17,3.38-1.61,5.09-1.38,5.94-3.09,15.47-4.07,21.32-.47,1.79-.42,3.64-1.71,4.87-1.95.08-2.75-3.07-3.84-4.7-6.38-12.33-10.11-27.14-7.63-42.28.79-5.15-.9-1.49-2.22,1.11-4.6,8.86-11.72,27.07-15.51,37.49-1.86,4.55-3.14.4-3.6-2.06-2.94-13.49-1.41-28.66,2.49-42.42,5.49-17.08-6.31.73-10.08,7.13-3.01,3.89-8.25,18.47-10.73,17.55-1.15-1.59-1.2-5.26-1.15-7.83.13-14.8,3.92-30.07,11.09-42.84,2.87-5.01,6.44-10.97-2.43-3.53-6.95,4.78-24.9,30.14-18.48,7.82,2.85-8.26,3.55-16.1,6.19-23.72,1.48-4.8,9.05-13.93,9.85-16.19.06-.18.07-.31.04-.4-.51-.54-2.93,1.46-3.91,2.13-8.73,6.84-17.44,14.53-24.96,23.5-5.04,6.35-8.97,10.08-5.93-1.7,4.85-19.01,15.42-35.98,29.36-48.24,1.65-1.73,5.54-4.31,6.33-6.02.1-.44-.52-.49-1.84-.17-4.66,1.28-10.08,3.64-14.61,5.75-6.3,2.98-10.9,6.08-15.96,10.09-2.46,1.62-5.2,4.75-7.91,4.87-.4-.21-.52-.63-.45-1.09.27-1.54.81-2.83,1.68-4.53,8.9-16.28,21.61-29.33,35.63-39.65,9.79-7.03-1.32-4.08-8.34-1.66-7.08,2.42-13.86,5.67-20.37,9.43-3.81,2.18-7.1,3.86-8.18,3.28-1.48-1.22.72-4.14,1.61-5.85,8.99-14.05,22.56-23.87,36.05-32.1,5.93-5.02-12.29-.98-14.86-.23-8.75,2.35-19.87,6.76-8.92-3.88,10.68-10.59,23.25-18.26,37.75-22.54,1.91-.79,3.49-1.52.56-2.1-13.23-1.54-26.64.37-39.31,2.98-8.96,2.15-9.94-.17-3.28-6.13,9.43-8.56,20.88-14.4,33.43-17.48,8.73-1.87,10.87-3.39-.07-4.07-7.24-.44-14.29.51-21.04,2.15-1.58.26-3.18.76-4.57.79-.98.05-1.49-.12-1.47-.56.75-1.61,3.38-3.61,5.25-4.74,10.83-7.07,23.11-11.84,36.15-13.98,9.81-1.21,10.11-2.39-.12-5.25-5.72-1.67-12.82-2.08-19.4-2.61-1.91-.23-4.06-.34-5.68-.76-1.29-.3-1.92-.68-1.89-1.15.9-1.55,3.81-2.59,5.75-3.42,8.27-3.41,17.01-6.03,26.09-7.18,4.61-.67,13.53-.71,13.83-1.17-1.82-2.23-28.49-6.43-24.06-9.74,9.51-4.21,21.46-4.48,32.71-3.57,4.42.31,12.87,2.2,14.55,1.69,2.91-1.72-13.71-8.41-15.75-9.1-3.54-1.88-21.77-5.04-15.22-8.31,6.82-2.47,15.01-2.41,22.58-2.64,5.44-.09,16.84,1.39,7.89-4.8-6-4.33-1.21-5.18,4.07-4.39,4.32.55,9.27,2.51,13.45,3.21,5.51.5-2.44-4.67-6.26-7.09-5.43-3.42-11.45-6.08-17.18-9-7.01-3.65-.1-4.14,3.19-3.99,8.76.07,18.43,2.17,27.27,5.79,1.31.26,13.49,6.88,9.67,2.06-1.51-1.64-3.69-3.5-5.58-4.99-3.82-3.35-9.95-6.25-9.28-8.87,1.05-1.08,3.87-.93,5.81-.65,7.59.88,15.69,4.93,23.36,8.6,2.06.85,4.73,2.47,6.61,2.29.25-.07.38-.22.37-.47.22-.94-3.64-4.79-5.85-6.77-2.79-2.42-8.49-7.69-2.27-6.61,7.59,1.45,15.17,4.92,22.28,8.47,2.88,1.54,9.76,5.05,6.42-.55-1.45-3.1-9.67-10.79-3.93-8.97,7.89,2.93,14.96,7.7,22.36,11.02,5.82,2.12,3.96-4.3,2.81-7.21-.76-2.17-2.12-4.4-2.53-6.51-.04-.42-.04-.73.32-.89,1.71-.23,5.06,2.83,8.33,5.04,3.99,2.98,8.21,6.02,11.45,9.35.04.04.07.07.11.11Z"/>
</svg>