<?xml version="1.0" encoding="UTF-8"?>
<svg xmlns="http://www.w3.org/2000/svg" viewBox="0 0 361.48 455.45">
    <path fill="#47a0a1" d="M166.97,14.56c3.42,4.07,5.84,2.89,7.97-.76,2.98-4.62,2.9-10.94,5.21-12.43,2.7.06,3.87,3.67,5.09,5.86,3.25,7.58,5.33,9.07,11.62,3.55,5.1-4.04,10.74-7.92,16.74-10.4,5.38-2.09-.08,4.96-1.02,7.2-1.14,2.71-4.99,9.51-.49,10.74,2.01.35,5.55-1.12,8.98-2.21,4.78-1.69,14.02-3.81,17.78-3.1,2.23.89-1.76,3.66-2.89,4.95-1.3,1.22-2.73,2.73-3.61,4.17-3.11,5.85,6.39,2.31,10.27,2.07,5.42-.96,15.75-.49,19.31,2.1,2.23,2.46-6.68,5.03-8.88,6.81-2.99,1.73-5.75,4.64-.25,4.4,8.36-.76,17.01-1.71,25.21.64,2.52.69,6.28,1.81,7.4,4.13.57,1.97-4.87,3.08-7.13,3.69-2.94.74-6.27,2.12-8.84,3.43-7.44,4.09,4.86,1.97,7.23,2.16,2.91-.02,5.73.23,8.6.85,6.07,1.31,12.84,3.7,17.98,6.95,1.08.46,4.92,3.3,3.15,3.85-1.99.35-5.35-.27-9.02-.53-4.31-.24-8.7.04-12.8,1.2-2.92.71-8.57,3.4-2.62,5.13,4,1.21,9.12,1.86,12.77,4.23,1.94,1.44-.66,1.87-1.2,2.8-.52.62-.43,1.84-.59,3.15-.66,3.06,5.32,4.55,8.05,6.84,3.18,2.17,7.43,5.29,10.79,7.7,1.92,1.46,4.07,2.67,5.36,4.51.05.14.05.26,0,.35-.38.75-4.62-.05-8.95-.38-4.69-.38-9.42-.37-13.98.39-1.29.16-8.9,1.59-4.26,2.99,9.73,1.97,19.55,5.29,27.9,11.07,3.74,2.53,7.88,5.58,8.07,6.97.13,2.96-19.33-.7-21.11.56.95.9,3.84,1.79,5.37,2.51,9.1,3.82,17.37,9.89,24.87,16.44,12.39,10-6.44,2.51-11.1,2.27-3.32-.85-12.68-1.07-12.36.84.76,1.84,3.92,2.77,5.73,3.86,11.11,5.61,21.39,13.72,29.37,23.3,2.83,3.83-3.1.72-4.54.1-5.99-2.84-12.4-5.28-18.94-5.95-9.71-.84-5.85,1.12.13,3.31,10.83,4.38,20.21,12.26,27.6,21.39,1.37,1.55,5.43,6.82,1.1,5.96-8.18-2.47-16.34-6.27-24.89-7.43-1.59-.27-3.79-.54-5.25-.34-.87.14-1.19.49-.94,1.06.72,1.53,3.3,2.93,4.74,4.15,7.84,5.72,14.64,12.82,20.89,20.24,1.36,1.54,5.67,6.34,1.53,5.48-4.86-1.12-9.95-3.63-14.9-4.78-4.8-1.26-8.57-1.53-7.55.06,10.35,8.34,22.35,17.06,29.27,28.55,1.27,1.76,4.31,7.09.67,5.93-7.73-3.64-15.29-8.36-23.61-10.72-1.57-.5-3.73-1.12-5.25-1.2-.84-.03-1.26.18-1.2.63.36,1.6,3.22,3.44,4.53,4.76,10.29,8.84,20.13,18.58,27.44,30.01.59,1.02.99,1.89,1.13,2.53.21.92-.12,1.33-.99,1.22-1.71-.29-3.56-1.49-5.21-2.37-6.17-3.61-12.74-6.69-19.6-8.73-8.72-2.61-4.65,1.01-.62,4.35,12.2,10.43,21.71,23.99,28.2,38.65.53,1.23.9,2.26,1.01,2.95.09.55,0,.89-.28,1-.28.11-.77-.02-1.47-.36-.48-.23-1.05-.57-1.7-.98-6.46-4.2-18.18-12.2-24.9-16.57-1.12-.71-1.72-1.01-1.78-.85.3,1.19,3.26,3.95,4.18,5.39,8.32,10.85,14.99,24.05,18.55,37.31.04,1.68-1.1,1.03-2.91-.87-4.19-4.74-8.38-9.08-13.62-12.95-2.14-1.55-9.52-5.99-10.49-2.47.23,2.37,2.09,4.18,3.47,6.21,7.4,9.55,12.2,21.17,15.26,32.95.87,3.83,2.65,9.38-3.26,3.81-4.51-4.06-12.2-11.12-16.62-15.11-.78-.69-2.83-2.56-3.26-2.38-.22.09-.06.66.37,1.61.29.65.71,1.48,1.18,2.42,5.36,10.32,9.84,21.43,11.2,33.02,1.78,13.52-3.61,3.83-7.2-1.56-3.04-4.84-6.98-8.98-11.19-13.43-1.41-1.35-3.69-4.29-5.28-4.84-.65.49.41,2.8.71,3.94,4.04,11.56,4.41,24.19,2.62,36.4-1.63,15.26-5.59.55-9.52-6.26-1.03-1.59-5.22-12.21-6.16-10.61-.16.38-.22,1.21-.25,2.32-.02.73-.02,1.58-.03,2.51.01,11.3-2.85,30.25-10.75,38.1-2,.55-1.72-11.38-2.62-13.91-.69-4.36-6.06-24.63-6.98-9.48-.83,8.96-3.6,17.72-7.49,25.88-2.33,4.27-4.18,9.57-6.33,9.25-1.75-1.89-1.59-4.86-2.24-7.46-.95-3.87-1.7-13.45-3.3-16.02-1.04,1.22-1.17,4.35-1.75,6.07-1.24,5.3-3.12,10.54-5.21,15.62-1.64,3.89-3.3,8.09-4.39,8.52-.38.12-.6-.05-.83-.42-.87-1.72-1-3.61-1.4-5.66-4.24-28.69-1.13-7.51-15.67,11.63-1.8,2.26-5.02,8.07-5.62,1.25-.36-3.26-.6-8.65-.92-13.24-.31-2.85-.18-10.57-1.88-8.02-2.91,5.9-5.49,12.4-9.29,17.92-.89,1.42-1.96,2.98-3.25,3.76-.29.13-.56.13-.8,0-.77-.57-.95-1.52-1.19-2.48-.67-3.21-1.06-9.46-1.52-13.05-.56-5.56-1.57-3.1-2.86.17-1.67,3.95-3.89,11.18-5.96,14.62-1.94,3.4-3.01-6.49-3.71-7.83-.92-3.02-1.9-6.68-3.88-9.03-.45-.45-1.05-.81-1.56-.31-1.31.96-1.77,7.64-2.5,10.73-.97,4.3-2.81,11.69-6.68,8.81-3.13-3.49-3.57-11.87-4.35-17.04-1.93-10.74-7.24,8.04-7.91,10.58-2.46,9.01-5.88.15-7.29-4.24-.68-1.43-2.73-12.22-4.63-6.66-1.69,4.42-.97,12.59-2.58,15.22-2.87,2.42-10.65-15.58-11.66-17.75-1.46-3.52-2.34-4.59-2.81-1.77-.68,4.54-1.15,13.89-1.7,18.44-.26,1.43-.25,2.86-1.22,3.78-.95.38-1.56-.49-2.35-1.34-.76-.98-1.59-2.07-2.3-3.2-4.77-6.96-8.09-15.1-11.56-22.75-.76-1.56-1.44-.72-1.7.35-.86,2.85-1.62,12.14-2.51,16.06-.88,4.33-2.61,1.28-3.81-1.56-3.04-6.83-5.59-14.02-7.07-21.37-2.04-12.62-4.03-2.78-5.26,3.81-.91,3.78-.71,10.43-2.35,12.85-.43.45-1.05.31-1.51-.11-1.23-1.2-2.48-3.22-3.32-4.94-4.54-8.68-7.57-18.12-8.46-27.85-.34-1.56-.09-5.17-1.37-5.93-1.6.48-2.57,4.09-3.33,5.68-2.08,5.3-3.29,10.86-3.82,16.47-.27,1.82-.32,3.92-1.06,5.42-1.12,1.81-2.43-.67-3.22-1.93-5.39-10.33-7.43-22.23-7.78-33.95-.31-1.83.29-5.31-.64-6.67-.12-.08-.26-.06-.43.07-.95.92-1.65,2.58-2.36,3.93-2.37,4.78-5.92,12.26-8.13,16.63-.81,1.26-1.23,2.82-2.55,3.16-1.55-.95-1.39-3.94-1.85-5.84-1.98-13.41-1.66-27.29,3.08-39.93,1.56-4.35-.43-1.67-1.94.13-5.2,6.31-14.49,18.39-19.8,24.42-2.46,2.6-2.47-1.19-2.27-3.28.8-11.68,4.98-23.06,10.4-33.52,7.15-12.92-4.98-1.39-9.04,2.26-2.98,2.2-9.79,11.48-11.5,9.66-.55-1.68.12-4.5.63-6.48,2.89-11.38,8.23-22.44,15.56-31.56,2.92-3.58,6.46-7.92-1.4-3.77-6.01,2.63-23.53,17.35-15.35,1.31,3.35-5.91,4.87-12.32,7.77-18.25,1.7-3.7,8.49-10.24,9.3-12.21.06-.15.09-.27.07-.36-.35-.58-2.41.76-3.24,1.16-7.44,4.41-14.99,9.03-21.86,14.34-4.66,3.78-8.11,5.64-4.37-2.8,5.93-13.76,15.45-26.12,27.04-35.64,1.39-1.36,4.57-3.31,5.27-4.83.1-.4-.38-.51-1.43-.35-3.71.71-8.06,2.25-11.72,3.57-5.09,1.87-8.86,3.94-13.07,6.57-2.03,1.01-4.38,3.15-6.5,2.83-.3-.23-.35-.58-.27-.94.32-1.21.83-2.17,1.62-3.44,8.01-12.02,18.35-22.37,29.49-31.51,7.75-6.32-.97-3.8-6.49-1.8-5.57,1.99-10.93,4.58-16.11,7.41-3.04,1.64-5.66,2.82-6.49,2.27-1.12-1.09.68-3.37,1.41-4.76,7.33-11.24,17.85-19.95,28.25-28.2,4.53-4.95-9.63-.32-11.63.4-6.81,2.43-15.39,6.58-7.06-3,8.09-9.69,17.5-17.93,28.59-23.77,1.45-.98,2.64-1.89.32-2.08-10.44.18-20.78,3.71-30.52,7.31-6.88,2.76-7.74.99-2.9-4.81,6.83-8.37,15.25-15.4,24.77-20.51,6.65-3.3,8.18-5.21-.42-3.72-5.69.99-11.08,3.21-16.19,5.84-1.21.51-2.41,1.22-3.48,1.5-.76.22-1.17.16-1.19-.21.44-1.49,2.31-3.67,3.65-4.99,7.75-8.11,16.74-15.2,26.68-20.35,7.53-3.48,7.63-4.8-.72-4.87-4.67-.09-10.25,1.4-15.42,2.63-1.51.29-3.19.75-4.5.81-1.03.07-1.57-.09-1.61-.49.51-1.55,2.62-3.21,4.02-4.45,5.96-5.17,12.38-10.05,19.3-13.82,3.5-2,10.5-4.72,10.67-5.25-1.8-1.7-23.22,2.87-20.27-1.35,6.71-6.77,15.98-11.26,25.04-14.21,3.54-1.23,10.59-2.19,11.86-3.24,2.05-2.84-12.34-3.62-14.06-3.4-3.16-.56-17.97,3.42-13.44-1.91,4.86-4.81,11.31-8.03,17.3-11.22,4.29-2.21,13.8-5.34,5.39-7.74-5.66-1.63-2.02-4.39,2.41-5.9,3.61-1.31,8.03-1.43,11.61-2.41,4.65-1.74-2.94-3.77-6.56-4.41-5.15-.98-10.59-.75-15.8-.74-6.39,0-1.02-3.63,1.65-5.07,7.02-4.08,15.42-6.8,23.61-7.14,1.14-.44,12.84,1.19,8.61-2.16-1.63-1.06-3.87-1.99-5.8-2.63-3.97-1.65-9.75-1.49-9.8-4.3.62-1.55,3.01-2.8,4.71-3.48,6.6-2.9,14.55-2.72,22.09-2.04,2,.02,4.7.69,6.35-.27.21-.18.29-.4.24-.67.02-1.16-4.23-3.77-6.62-4.88-3-1.39-9.26-4.07-3.5-5.95,7.11-2.14,14.84-1.76,22.15-.37,2.97.63,10.08,2.42,5.96-3.04-1.88-3.28-11.28-8.62-5.43-8.92,8.19.07,15.95,3.4,23.66,5.66,6.02,1.24,3.49-6.4,1.93-9.75-1.04-2.53-2.74-4.9-3.48-7.39-.11-.51-.15-.89.2-1.19,1.75-.82,5.68,2.03,9.31,4.12,4.47,2.88,9.09,6.15,12.58,10.13l.12.12Z"/>
</svg>