<?xml version="1.0" encoding="UTF-8"?>
<svg xmlns="http://www.w3.org/2000/svg" viewBox="0 0 141.3 140.5">
    <path fill="#fdd8b3" d="M131.92,35.13c19.58,34.01,7.54,78.13-27.09,96.66C42.23,165.28-26.54,95.68,10.36,34.16c27.56-45.96,94.83-45.45,121.56.98Z"/>
    <path fill="#0d0906" d="M85.05,40.99c-9.64-.94-14.87,12.82-7.08,18.55,8.55,6.29,19.84-2.97,15.38-12.69,29.43,35.84-30.37,76.21-52.24,37.35-16.08-28.58,15.92-60.78,43.94-43.2Z"/>
    <path fill="#fdfdfe" d="M85.05,40.99c2.17.21,6.85,4.1,8.3,5.86,4.46,9.72-6.83,18.98-15.38,12.69-7.8-5.73-2.56-19.49,7.08-18.55Z"/>
</svg>