<?xml version="1.0" encoding="UTF-8"?>
<svg id="Layer_4" data-name="Layer 4" xmlns="http://www.w3.org/2000/svg" viewBox="0 0 171.44 74.37">
    <g>
        <path fill="#fdd8b3" d="M79.61.32c53.16-5.81,58.11,68.77,11.02,73.76C39.07,79.55,31.72,5.56,79.61.32Z"/>
        <path fill="#090707" d="M89.43,19c-8.78,8.41,4.07,21.59,13.41,12.93,6.03,18.73-17.08,32.91-31.37,19.64-14.2-13.19-.97-37.7,17.96-32.57Z"/>
        <path fill="#fdfdfe" d="M102.84,31.94c-9.34,8.66-22.19-4.52-13.41-12.93,9.16-8.78,22.97,4.07,13.41,12.93Z"/>
        <path fill="#fae3ce" d="M79.61,1.76c15.42-1.85,33.24,5.6,38.56,20.84C102.53,1.53,72.56,0,54.23,18.52c3.99-8.26,16.28-15.67,25.39-16.76Z"/>
    </g>
    <g>
        <path fill="#fdd8b3" d="M39.79,43.16C53.58,77.01-6.12,81.08.52,47.47c2.79-4.02,4.16-8.46,8.38-11.5.61-.44,7.29-4.25,6.23-1.92.05.58-7.36,3.25-5.27,4.31,6.85-4.91,15.13-5.03,22.51-1.44,3.06,1.49,4.91,3.94,7.42,6.23Z"/>
        <path fill="#fae3ce" d="M39.79,43.16c-2.51-2.28-4.36-4.74-7.42-6.23-7.39-3.59-15.66-3.48-22.51,1.44-2.1-1.06,5.31-3.73,5.27-4.31,1.07-2.33-5.61,1.48-6.23,1.92-4.22,3.03-5.6,7.47-8.38,11.5,3.63-18.41,31.85-22.54,39.28-4.31Z"/>
        <path fill="#090707" d="M23.99,42.68c-2.46,6.1,1.67,9.84,7.66,7.18-.01.34.98,2.5.96,2.63-2.72,19.64-25.7,11.26-21.08-3.35,1.92-6.06,7.7-5.94,12.45-6.47Z"/>
        <path fill="#fdfdfe" d="M31.65,49.86c-5.99,2.66-10.12-1.08-7.66-7.18,2.35-.26,7.91-2.59,9.1,1.68.75,2.68-1.39,4.3-1.44,5.51Z"/>
    </g>
    <g>
        <path fill="#fdd8b3" d="M149.24,31.18c27.69-2.14,30.05,37.84,3.83,39.76-27.65,2.02-28.95-37.81-3.83-39.76Z"/>
        <path fill="#090707" d="M151.88,43.16c-3.29,4.14,1.29,9.95,6.71,6.71,4.27,4.2-1.22,13-6.47,13.89-17.48,2.98-17.94-24.03-.24-20.6Z"/>
        <path fill="#fdfdfe" d="M158.58,49.86c-5.42,3.24-10-2.56-6.71-6.71,4.46-5.61,13.56,2.6,6.71,6.71Z"/>
    </g>
</svg>