<?xml version="1.0" encoding="UTF-8"?>
<svg xmlns="http://www.w3.org/2000/svg" viewBox="0 0 134 60.9">
    <g id="Eyes">
        <path id="White" fill="#f8eccc"
            d="M30.08.14c20.01-1.6,36,10.24,36.39,27.83,3.04-9.51,5.14-18.49,15.68-23.92,18.42-9.48,44.18-1.33,50.11,16.84,13.22,40.5-52.94,56.93-65.78,16.35-4.68,20.6-30.36,29.97-50.95,19.04C-11.23,42.07-1.49,2.67,30.08.14Z" />
        <g id="Right_Eye" data-name="Right Eye">
            <path fill="#0d0906"
                d="M79.63,25.53c.2.94,1.45,3.06,2.24,3.42-5.54,5.71,2.23,14.82,9.8,15.62,22.06,2.34,20.85-26.42-1.4-21.97-.22-.61-3.28-2.29-3.92-2.93,23.13-6.44,34.52,16.68,18.2,25.87-15.74,8.87-36.97-6.41-24.91-20.02Z" />
            <path fill="fdfdfe"
                d="M81.87,28.95c5.05,2.32,10-1.98,8.4-6.35,22.25-4.45,23.46,24.31,1.4,21.97-7.57-.8-15.34-9.92-9.8-15.62Z" />
        </g>
        <g id="Left_Eye" data-name="Left Eye">
            <path fill="#0d0906"
                d="M25.33,24.55c-.06,1.34.47,3.06,1.68,3.91-5.12,11.38,9.58,20.25,21,14.16,13.07-6.98,2.05-23.65-12.04-20.5-.46-.77-3.25-1.67-3.92-2.44,22.37-6.24,34.49,15.47,18.76,25.39-16.11,10.15-37.63-6.02-25.47-20.5Z" />
            <path fill="fdfdfe"
                d="M27,28.46c4.92,3.43,11.69-1.79,8.96-6.35,14.09-3.15,25.11,13.53,12.04,20.5-11.42,6.09-26.11-2.77-21-14.16Z" />
        </g>
    </g>
</svg>