<?xml version="1.0" encoding="UTF-8"?>
<svg id="Layer_2" data-name="Layer 2" xmlns="http://www.w3.org/2000/svg" viewBox="0 0 345.63 154.2">
    <path fill="#f79868" d="M124.87,104.34c-1.21-.84-15.22-9.83-22.64-13.53-1.64-.84-3.1-1.71-4.86-2.55-.37-.27-19.49-10.31-21.18-11.16-3.47-1.98-6.48-3.81-9.67-6.05-1.5-1.06-3.64-2.4-4.92-3.46-4.86-4-8.44-9.49-10.54-14.24-2.53-5.62-3.03-10.19-3.02-10.26.1-.9.94-3.11,1.36-4.05.11-1.28,13.91-13.71,22.57-18.06,3.13-1.01,5.7-2.22,8.52-3.44C41.03,20.86-1.3,32.65.03,52.69c-.39,27.13,75.19,69.93,112.18,86.82,29.05,4.6,29.38,4.71,30.4-1.32-.49-6.03,2.24-20.41-17.74-33.85Z"/>
    <path fill="#f79868" d="M220.76,104.34c1.21-.84,15.22-9.83,22.64-13.53,1.64-.84,3.1-1.71,4.86-2.55.37-.27,19.49-10.31,21.18-11.16,3.47-1.98,6.48-3.81,9.67-6.05,1.5-1.06,3.64-2.4,4.92-3.46,4.86-4,8.44-9.49,10.54-14.24,2.53-5.62,3.03-10.19,3.02-10.26-.1-.9-.94-3.11-1.36-4.05-.11-1.28-13.91-13.71-22.57-18.06-3.13-1.01-5.7-2.22-8.52-3.44,39.46,3.31,81.79,15.1,80.46,35.14.39,27.13-75.19,69.93-112.18,86.82-29.05,4.6-29.38,4.71-30.4-1.32.49-6.03-2.24-20.41,17.74-33.85Z"/>
</svg>