<?xml version="1.0" encoding="UTF-8"?>
<svg xmlns="http://www.w3.org/2000/svg" viewBox="0 0 284.19 192.75">
    <path fill="#f79868" d="M116.36,135.43c-.53-1.28-5.28-14.99-7.63-20.59-.54-1.28-.97-2.6-1.55-3.86-.2-.44-5.82-15.5-6.2-16.73-.91-2.95-1.65-5.67-2.33-9.01-.32-1.57-.81-3.57-1.03-5.15-.84-5.97-.76-14.26-.41-21.51.41-8.58,1.17-15.71,1.19-15.81.23-1.41.97-4.93,1.29-6.43.42-1.95,7.19-22.56,10.34-30.24C111.16,4.28,112.11,2.16,113.13,0c-12.71,7.88-28.67,30.84-35.16,60.48-8.74,39.98-2.84,99.14,11.89,125.78,20.03,8.57,22.82,8.72,26.2,0,3.38-8.72,7.92-30.24.29-50.83Z"/>
    <path fill="#f79868" d="M167.83,135.43c.53-1.28,5.28-14.99,7.63-20.59.54-1.28.97-2.6,1.55-3.86.2-.44,5.82-15.5,6.2-16.73.91-2.95,1.65-5.67,2.33-9.01.32-1.57.81-3.57,1.03-5.15.84-5.97.76-14.26.41-21.51-.41-8.58-1.17-15.71-1.19-15.81-.23-1.41-.97-4.93-1.29-6.43-.42-1.95-7.19-22.56-10.34-30.24-1.13-1.83-2.08-3.95-3.1-6.11,12.71,7.88,28.67,30.84,35.16,60.48,8.74,39.98,2.84,99.14-11.89,125.78-20.03,8.57-22.82,8.72-26.2,0-3.38-8.72-7.92-30.24-.29-50.83Z"/>
</svg>