<?xml version="1.0" encoding="UTF-8"?>
<svg xmlns="http://www.w3.org/2000/svg" viewBox="0 0 284.19 154.2">
    <path fill="#f5a564" d="M88.49,108.35c-1.09-1.03-11-11.99-15.89-16.47-1.12-1.02-2.03-2.08-3.23-3.09-.42-.35-12.13-12.4-12.93-13.38-1.9-2.36-3.43-4.54-4.85-7.21-.67-1.26-1.69-2.86-2.15-4.12-1.76-4.78-1.58-11.41-.86-17.21.85-6.86,2.44-12.56,2.48-12.64.47-1.12,2.02-3.95,2.69-5.15.88-1.56,14.99-18.05,21.54-24.19C77.64,3.42,79.63,1.73,81.75,0,55.28,6.3,22.02,24.67,8.51,48.38c-18.22,31.98-5.91,79.31,24.77,100.63,41.73,6.86,47.55,6.98,54.59,0,7.04-6.98,16.5-24.19.61-40.66Z"/>
    <path fill="#f5a564" d="M195.71,108.35c1.09-1.03,11-11.99,15.89-16.47,1.12-1.02,2.03-2.08,3.23-3.09.42-.35,12.13-12.4,12.93-13.38,1.9-2.36,3.43-4.54,4.85-7.21.67-1.26,1.69-2.86,2.15-4.12,1.76-4.78,1.58-11.41.86-17.21-.85-6.86-2.44-12.56-2.48-12.64-.47-1.12-2.02-3.95-2.69-5.15-.88-1.56-14.99-18.05-21.54-24.19-2.35-1.47-4.34-3.16-6.46-4.89,26.47,6.3,59.74,24.67,73.25,48.38,18.22,31.98,5.91,79.31-24.77,100.63-41.73,6.86-47.55,6.98-54.59,0-7.04-6.98-16.5-24.19-.61-40.66Z"/>
</svg>