<?xml version="1.0" encoding="UTF-8"?>
<svg xmlns="http://www.w3.org/2000/svg" viewBox="0 0 220.17 128.93">
    <path fill="#0d0906" d="M44.42,17.82c1.29,9.69,1.86,21.24,8.54,28.8,2.48-8.44,8.35-15.78,8.05-24.9,8.3,1.75,17.47,4.07,25.87,4.88-.81,16.97,15.47,30.71,23.19,9.76,8.62,20.49,24.72,7.83,23.68-9.76,8.12-.77,17.35-2.73,25.39-4.39l8.05,24.9c6.89-7.69,7.32-19.04,8.54-28.8L220.17,0c-4.49,32.59-10.85,68.32-31.24,94.95-14.88-16.04-36.89-24.42-58.83-22.46-5.01.45-12.1,3.61-16.11,3.91-5.18.39-14.87-3.07-20.99-3.42-18.77-1.07-40,5.39-53.94,18.06-1.54,1.4-2.7,3.15-4.39,4.39C13.37,69.26,6.37,32.38,0,0c14.56,6.59,29,13.34,44.42,17.82Z"/>
    <path fill="#fdd8b3" d="M133.76,26.61c1.04,17.6-15.05,30.26-23.68,9.76-7.72,20.95-24,7.21-23.19-9.76,14.69,1.41,32.17,1.39,46.87,0Z"/>
    <g>
        <path fill="#fd7448" d="M181.6,92.02c-4.31.09-9.55,10.59-8.54,14.65-8.77-22.1-21.35-.48-17.33,13.18-6.22,2.57-11.45,4.41-18.06,5.86.74-21.32-20.37-30.79-27.09-6.83-3.91-24.34-27.69-13.82-25.63,6.83-7.3-1.68-12.22-3.18-19.04-6.35,3.05-10.76-5.81-32.91-16.35-15.62-.55-2.8-4.67-11.1-7.08-12.2,13.99-11.23,32.46-17.17,50.53-16.11,1.54.09,13.76,1.81,13.18,2.93-3.16,1.95-8.98,3.08-10.74,6.35,3.96-1.36,12.33-5.55,16.11-5.86,4.52-.37,11.37,3.16,16.11,3.42l-7.81-3.91v-1.46c15.24-3.39,30.02-2.63,44.42,3.42,5.28,2.22,14.38,7.14,17.33,11.72Z"/>
        <path fill="#fdd8b3" d="M137.67,125.71c-19.14,4.2-33.59,4.41-52.72,0-2.06-20.66,21.72-31.17,25.63-6.83,6.73-23.96,27.83-14.49,27.09,6.83Z"/>
        <path fill="#d75f3a" d="M188.93,94.95c-.12.16-.37.83-.49.98-1.89-1.15-4.46-3.96-6.83-3.91-2.95-4.57-12.05-9.5-17.33-11.72-14.41-6.05-29.19-6.81-44.42-3.42v1.46l7.81,3.91c-4.74-.26-11.59-3.78-16.11-3.42-3.78.31-12.15,4.5-16.11,5.86,1.76-3.27,7.58-4.4,10.74-6.35.58-1.12-11.64-2.84-13.18-2.93-18.07-1.06-36.54,4.88-50.53,16.11-.7-.32-2.46.46-3.42-.49,13.95-12.68,35.17-19.13,53.94-18.06,6.12.35,15.81,3.8,20.99,3.42,4.01-.3,11.1-3.46,16.11-3.91,21.93-1.96,43.94,6.41,58.83,22.46Z"/>
        <path fill="#fdd8b3" d="M181.6,92.02c2.38-.05,4.94,2.75,6.83,3.91-9.52,12.03-18.64,18.12-32.71,23.92-4.02-13.66,8.56-35.28,17.33-13.18-1.01-4.06,4.23-14.55,8.54-14.65Z"/>
        <path fill="#fdd8b3" d="M42.47,91.53c2.41,1.1,6.53,9.41,7.08,12.2,10.54-17.29,19.4,4.86,16.35,15.62-12.74-5.91-22.41-13.06-31.24-23.92,1.69-1.25,2.85-2.99,4.39-4.39.96.94,2.72.17,3.42.49Z"/>
    </g>
    <path fill="#fdd8b3" d="M175.74,18.31c-1.22,9.76-1.65,21.12-8.54,28.8l-8.05-24.9c5.55-1.15,10.96-3.32,16.6-3.91Z"/>
    <path fill="#fdd8b3" d="M61.02,21.72c.3,9.12-5.57,16.46-8.05,24.9-6.68-7.56-7.25-19.11-8.54-28.8,5.58,1.62,10.92,2.71,16.6,3.91Z"/>
</svg>