<svg xmlns="http://www.w3.org/2000/svg" viewBox="0 0 148.92 53.82">
    <path fill="#090707" d="M19.04,9.76c-3.83,11.25,11.26,16.71,17.36,6.35,1.09.32,2.43.88,2.8.98-2.98,13.9,15.35,17.81,20.16,4.39,8.35,1.12,19.63,1.01,27.99,0,6.85,12.65,24.56,10.27,22.95-4.39.31-.08,1.64-.64,2.8-.98,6.34,10.7,19.35,4.26,17.92-6.35L148.92.98c-1.72,2.49-2.83,8.91-4.48,11.96-6.71,12.45-16.35,22.57-29.67,30.02-6.12-6.21-16.39-8.43-25.47-7.81-4.15.28-12.28,3.49-15.12,3.42-1.49-.04-7.94-2.59-10.64-2.93-10.14-1.26-22.48.09-28.83,7.81C18.33,34.77,13.4,27.03,5.04,12.45,3.11,9.08,1.8,2.66,0,0c6.29,3.22,12.43,6.97,19.04,9.76Z" />
    <path fill="#fd7448" d="M114.77,42.96c-25.87,14.47-53.97,14.31-80.06.49,6.36-7.72,18.69-9.07,28.83-7.81,2.69.34,9.15,2.89,10.64,2.93,2.84.08,10.97-3.13,15.12-3.42,9.09-.62,19.36,1.6,25.47,7.81Z" />
    <g>
        <path fill="#f6c59f" d="M110.29,17.09c1.6,14.66-16.1,17.04-22.95,4.39,5.75-.69,17.9-3.03,22.95-4.39Z" />
        <path fill="#f6c59f" d="M59.35,21.48c-4.81,13.42-23.13,9.51-20.16-4.39,6.26,1.72,13.36,2.52,19.88,3.42.47.07.22.97.28.98Z" />
        <path fill="#f6c59f" d="M36.39,16.11c-6.1,10.37-21.18,4.9-17.36-6.35,4.58,1.94,12.59,4.95,17.36,6.35Z" />
        <path fill="#f6c59f" d="M131.01,9.76c1.43,10.6-11.57,17.05-17.92,6.35,5.53-1.63,11.9-5.31,17.92-6.35Z" />
    </g>
</svg>
